<svg xmlns="http://www.w3.org/2000/svg" xmlns:xlink="http://www.w3.org/1999/xlink" width="500" zoomAndPan="magnify" viewBox="0 0 375 374.999991" height="500" preserveAspectRatio="xMidYMid meet" version="1.0"><defs><clipPath id="id1"><path d="M 124 147 L 179.496094 147 L 179.496094 227.324219 L 124 227.324219 Z M 124 147 " clip-rule="nonzero"/></clipPath><clipPath id="id2"><path d="M 119.496094 141.824219 L 176 141.824219 L 176 224 L 119.496094 224 Z M 119.496094 141.824219 " clip-rule="nonzero"/></clipPath><clipPath id="id3"><path d="M 192 150 L 252.75 150 L 252.75 224.195312 L 192 224.195312 Z M 192 150 " clip-rule="nonzero"/></clipPath><clipPath id="id4"><path d="M 187.5 145.445312 L 250 145.445312 L 250 221 L 187.5 221 Z M 187.5 145.445312 " clip-rule="nonzero"/></clipPath></defs><path fill="rgb(26.669312%, 26.669312%, 26.669312%)" d="M 187.5 85.789062 C 130.382812 85.789062 84.375 131.796875 84.375 188.914062 C 84.375 246.027344 130.382812 292.039062 187.5 292.039062 C 244.085938 292.039062 290.625 246.027344 290.625 188.914062 C 290.625 131.796875 244.085938 85.789062 187.5 85.789062 Z M 187.5 276.171875 C 139.375 276.171875 100.242188 237.039062 100.242188 188.914062 C 100.242188 140.789062 139.375 101.652344 187.5 101.652344 C 235.625 101.652344 274.757812 140.789062 274.757812 188.914062 C 274.757812 237.039062 235.625 276.171875 187.5 276.171875 Z M 187.5 276.171875 " fill-opacity="1" fill-rule="nonzero"/><path fill="rgb(43.919373%, 49.409485%, 54.508972%)" d="M 187.5 101.652344 C 139.375 101.652344 100.242188 140.789062 100.242188 188.914062 C 100.242188 237.039062 139.375 276.171875 187.5 276.171875 C 235.625 276.171875 274.757812 237.039062 274.757812 188.914062 C 274.757812 140.789062 235.625 101.652344 187.5 101.652344 Z M 187.5 101.652344 " fill-opacity="1" fill-rule="nonzero"/><g clip-path="url(#id1)"><path fill="rgb(21.958923%, 71.369934%, 100%)" d="M 160.363281 147.140625 L 179.457031 147.140625 L 179.457031 201.355469 C 179.457031 206.382812 178.28125 210.871094 175.9375 214.816406 C 173.589844 218.757812 170.316406 221.8125 166.117188 223.988281 C 161.917969 226.15625 157.234375 227.242188 152.070312 227.242188 C 143.417969 227.242188 136.691406 225.070312 131.886719 220.730469 C 127.089844 216.386719 124.6875 210.238281 124.6875 202.277344 L 143.890625 202.277344 C 143.890625 205.898438 144.515625 208.519531 145.773438 210.148438 C 147.027344 211.773438 149.125 212.589844 152.070312 212.589844 C 154.726562 212.589844 156.769531 211.605469 158.207031 209.628906 C 159.644531 207.660156 160.363281 204.898438 160.363281 201.355469 L 160.363281 147.140625 " fill-opacity="1" fill-rule="nonzero"/></g><g clip-path="url(#id2)"><path fill="rgb(0%, 0%, 0%)" d="M 155.976562 192.667969 C 155.523438 192.667969 155.15625 192.304688 155.15625 191.851562 L 155.15625 191.15625 C 155.15625 190.703125 155.523438 190.339844 155.976562 190.339844 C 156.429688 190.339844 156.796875 190.703125 156.796875 191.15625 L 156.796875 191.851562 C 156.796875 192.304688 156.429688 192.667969 155.976562 192.667969 Z M 147.683594 223.695312 C 138.859375 223.695312 131.882812 221.433594 126.949219 216.96875 C 121.996094 212.488281 119.480469 206.078125 119.480469 197.914062 C 119.480469 197.460938 119.847656 197.097656 120.300781 197.097656 L 139.503906 197.097656 C 139.957031 197.097656 140.328125 197.460938 140.328125 197.914062 C 140.328125 201.332031 140.902344 203.8125 142.039062 205.285156 C 143.125 206.691406 145.023438 207.410156 147.683594 207.410156 C 150.082031 207.410156 151.871094 206.550781 153.15625 204.785156 C 154.480469 202.96875 155.15625 200.347656 155.15625 196.992188 C 155.15625 196.539062 155.523438 196.171875 155.976562 196.171875 C 156.429688 196.171875 156.796875 196.539062 156.796875 196.992188 C 156.796875 200.695312 156.023438 203.644531 154.488281 205.75 C 152.894531 207.933594 150.605469 209.042969 147.683594 209.042969 C 144.484375 209.042969 142.144531 208.117188 140.734375 206.28125 C 139.453125 204.617188 138.78125 202.144531 138.691406 198.730469 L 121.132812 198.730469 C 121.292969 206.023438 123.621094 211.75 128.058594 215.757812 C 132.675781 219.941406 139.28125 222.058594 147.683594 222.058594 C 152.691406 222.058594 157.289062 220.996094 161.351562 218.898438 C 165.394531 216.804688 168.585938 213.828125 170.84375 210.035156 C 173.101562 206.238281 174.246094 201.851562 174.246094 196.992188 L 174.246094 143.597656 L 156.796875 143.597656 L 156.796875 182.300781 C 156.796875 182.75 156.429688 183.117188 155.976562 183.117188 C 155.523438 183.117188 155.15625 182.75 155.15625 182.300781 L 155.15625 142.777344 C 155.15625 142.328125 155.523438 141.960938 155.976562 141.960938 L 175.070312 141.960938 C 175.523438 141.960938 175.890625 142.328125 175.890625 142.777344 L 175.890625 196.992188 C 175.890625 202.148438 174.667969 206.816406 172.257812 210.867188 C 169.84375 214.925781 166.429688 218.117188 162.109375 220.347656 C 157.8125 222.570312 152.960938 223.695312 147.683594 223.695312 " fill-opacity="1" fill-rule="nonzero"/></g><g clip-path="url(#id3)"><path fill="rgb(21.958923%, 71.369934%, 100%)" d="M 252.6875 214.3125 C 250.015625 217.28125 246.097656 219.671875 240.945312 221.484375 C 235.792969 223.296875 230.144531 224.203125 224 224.203125 C 214.554688 224.203125 207.007812 221.320312 201.359375 215.546875 C 195.710938 209.777344 192.6875 201.746094 192.292969 191.460938 L 192.242188 185.226562 C 192.242188 178.136719 193.5 171.945312 196.007812 166.652344 C 198.519531 161.359375 202.109375 157.285156 206.785156 154.433594 C 211.457031 151.582031 216.867188 150.15625 223.011719 150.15625 C 231.992188 150.15625 238.972656 152.207031 243.941406 156.316406 C 248.914062 160.421875 251.8125 166.546875 252.640625 174.6875 L 235.890625 174.6875 C 235.296875 170.667969 234.011719 167.796875 232.027344 166.082031 C 230.046875 164.367188 227.238281 163.511719 223.605469 163.511719 C 219.246094 163.511719 215.875 165.359375 213.496094 169.050781 C 211.121094 172.746094 209.914062 178.023438 209.878906 184.878906 L 209.878906 189.234375 C 209.878906 196.421875 211.113281 201.820312 213.570312 205.433594 C 216.03125 209.042969 219.90625 210.851562 225.191406 210.851562 C 229.714844 210.851562 233.085938 209.84375 235.296875 207.832031 L 235.296875 196.652344 L 223.207031 196.652344 L 223.207031 184.730469 L 252.6875 184.730469 L 252.6875 214.3125 " fill-opacity="1" fill-rule="nonzero"/></g><g clip-path="url(#id4)"><path fill="rgb(0%, 0%, 0%)" d="M 192.023438 163.421875 C 191.917969 163.421875 191.808594 163.398438 191.703125 163.347656 C 191.332031 163.171875 191.171875 162.730469 191.347656 162.355469 C 191.589844 161.851562 191.84375 161.347656 192.101562 160.863281 C 192.296875 160.5 192.75 160.363281 193.113281 160.554688 C 193.476562 160.75 193.613281 161.203125 193.417969 161.566406 C 193.171875 162.027344 192.929688 162.511719 192.699219 162.992188 C 192.574219 163.261719 192.304688 163.421875 192.023438 163.421875 Z M 220.019531 220.972656 C 210.40625 220.972656 202.609375 217.984375 196.839844 212.09375 C 191.085938 206.214844 187.964844 197.941406 187.5625 187.511719 L 187.511719 181.253906 C 187.511719 176.417969 188.097656 171.933594 189.257812 167.917969 C 189.367188 167.523438 189.785156 167.296875 190.179688 167.410156 C 190.578125 167.523438 190.804688 167.9375 190.691406 168.332031 C 189.570312 172.210938 189.003906 176.558594 189.003906 181.25 L 189.054688 187.476562 C 189.441406 197.503906 192.421875 205.445312 197.910156 211.050781 C 203.386719 216.644531 210.824219 219.480469 220.019531 219.480469 C 226.046875 219.480469 231.664062 218.582031 236.714844 216.804688 C 241.601562 215.085938 245.382812 212.8125 247.957031 210.046875 L 247.957031 181.5 L 219.972656 181.5 L 219.972656 191.929688 L 231.3125 191.929688 C 231.726562 191.929688 232.0625 192.261719 232.0625 192.675781 L 232.0625 203.855469 C 232.0625 204.066406 231.972656 204.265625 231.816406 204.40625 C 229.472656 206.539062 225.902344 207.617188 221.207031 207.617188 C 215.683594 207.617188 211.566406 205.6875 208.972656 201.875 C 206.4375 198.15625 205.152344 192.5625 205.152344 185.253906 L 205.152344 180.902344 C 205.183594 173.929688 206.441406 168.46875 208.886719 164.671875 C 211.398438 160.769531 215.011719 158.789062 219.621094 158.789062 C 223.421875 158.789062 226.421875 159.714844 228.535156 161.542969 C 230.535156 163.277344 231.886719 166.109375 232.546875 169.96875 L 247.820312 169.96875 C 246.910156 162.464844 244.109375 156.730469 239.484375 152.910156 C 234.671875 148.9375 227.789062 146.921875 219.027344 146.921875 C 213.050781 146.921875 207.722656 148.328125 203.191406 151.09375 C 202.839844 151.308594 202.378906 151.199219 202.164062 150.84375 C 201.949219 150.496094 202.058594 150.035156 202.410156 149.820312 C 207.183594 146.910156 212.773438 145.433594 219.027344 145.433594 C 228.144531 145.433594 235.351562 147.5625 240.4375 151.761719 C 245.539062 155.976562 248.554688 162.328125 249.398438 170.636719 C 249.417969 170.847656 249.351562 171.054688 249.207031 171.214844 C 249.066406 171.371094 248.867188 171.457031 248.65625 171.457031 L 231.90625 171.457031 C 231.539062 171.457031 231.222656 171.1875 231.167969 170.820312 C 230.605469 167 229.390625 164.257812 227.554688 162.667969 C 225.722656 161.082031 223.054688 160.28125 219.621094 160.28125 C 215.496094 160.28125 212.394531 161.980469 210.140625 165.476562 C 207.851562 169.03125 206.675781 174.222656 206.644531 180.90625 L 206.644531 185.253906 C 206.644531 192.257812 207.84375 197.566406 210.207031 201.035156 C 212.539062 204.460938 216.136719 206.125 221.207031 206.125 C 225.351562 206.125 228.5 205.25 230.570312 203.515625 L 230.570312 193.421875 L 219.226562 193.421875 C 218.8125 193.421875 218.476562 193.085938 218.476562 192.675781 L 218.476562 180.753906 C 218.476562 180.34375 218.8125 180.007812 219.226562 180.007812 L 248.703125 180.007812 C 249.117188 180.007812 249.453125 180.34375 249.453125 180.753906 L 249.453125 210.335938 C 249.453125 210.519531 249.382812 210.695312 249.261719 210.835938 C 246.511719 213.882812 242.457031 216.363281 237.210938 218.210938 C 232 220.042969 226.21875 220.972656 220.019531 220.972656 " fill-opacity="1" fill-rule="nonzero"/></g></svg>